<svg width="147" height="120" viewBox="0 0 147 120" fill="none" xmlns="http://www.w3.org/2000/svg">
<ellipse cx="3.98658" cy="3.88259" rx="3.98658" ry="3.88259" transform="matrix(0.999584 0.0288427 -0.028895 0.999582 3.9696 0.38623)" fill="#D9D9D9"/>
<ellipse cx="3.98658" cy="3.88259" rx="3.98658" ry="3.88259" transform="matrix(0.999584 0.0288427 -0.028895 0.999582 2.92252 36.6086)" fill="#D9D9D9"/>
<ellipse cx="3.98658" cy="3.88259" rx="3.98658" ry="3.88259" transform="matrix(0.999584 0.0288427 -0.028895 0.999582 1.91284 71.5374)" fill="#D9D9D9"/>
<ellipse cx="3.98658" cy="3.88259" rx="3.98658" ry="3.88259" transform="matrix(0.999584 0.0288427 -0.028895 0.999582 0.865753 107.76)" fill="#D9D9D9"/>
<ellipse cx="3.98658" cy="3.88259" rx="3.98658" ry="3.88259" transform="matrix(0.999584 0.0288427 -0.028895 0.999582 49.132 1.68921)" fill="#D9D9D9"/>
<ellipse cx="3.98658" cy="3.88259" rx="3.98658" ry="3.88259" transform="matrix(0.999584 0.0288427 -0.028895 0.999582 48.085 37.9116)" fill="#D9D9D9"/>
<ellipse cx="3.98658" cy="3.88259" rx="3.98658" ry="3.88259" transform="matrix(0.999584 0.0288427 -0.028895 0.999582 47.0753 72.8403)" fill="#D9D9D9"/>
<ellipse cx="3.98658" cy="3.88259" rx="3.98658" ry="3.88259" transform="matrix(0.999584 0.0288427 -0.028895 0.999582 46.0281 109.063)" fill="#D9D9D9"/>
<ellipse cx="3.98658" cy="3.88259" rx="3.98658" ry="3.88259" transform="matrix(0.999584 0.0288427 -0.028895 0.999582 92.966 2.9541)" fill="#D9D9D9"/>
<ellipse cx="3.98658" cy="3.88259" rx="3.98658" ry="3.88259" transform="matrix(0.999584 0.0288427 -0.028895 0.999582 91.919 39.1765)" fill="#D9D9D9"/>
<ellipse cx="3.98658" cy="3.88259" rx="3.98658" ry="3.88259" transform="matrix(0.999584 0.0288427 -0.028895 0.999582 90.9093 74.1052)" fill="#D9D9D9"/>
<ellipse cx="3.98658" cy="3.88259" rx="3.98658" ry="3.88259" transform="matrix(0.999584 0.0288427 -0.028895 0.999582 89.8623 110.327)" fill="#D9D9D9"/>
<ellipse cx="3.98658" cy="3.88259" rx="3.98658" ry="3.88259" transform="matrix(0.999584 0.0288427 -0.028895 0.999582 138.128 4.25732)" fill="#D9D9D9"/>
<ellipse cx="3.98658" cy="3.88259" rx="3.98658" ry="3.88259" transform="matrix(0.999584 0.0288427 -0.028895 0.999582 137.081 40.4797)" fill="#D9D9D9"/>
<ellipse cx="3.98658" cy="3.88259" rx="3.98658" ry="3.88259" transform="matrix(0.999584 0.0288427 -0.028895 0.999582 136.072 75.4082)" fill="#D9D9D9"/>
<ellipse cx="3.98658" cy="3.88259" rx="3.98658" ry="3.88259" transform="matrix(0.999584 0.0288427 -0.028895 0.999582 135.025 111.631)" fill="#D9D9D9"/>
</svg>
